HIERARCHY
ROOT hip
{
	OFFSET 0.000000 0.000000 0.000000 
	CHANNELS 6 Xposition Yposition Zposition Xrotation Zrotation Yrotation
	JOINT abdomen
	{
		OFFSET 0.000000 3.402643 0.000000 
		CHANNELS 3 Xrotation Zrotation Yrotation
		JOINT chest
		{
			OFFSET 0.000000 8.438565 -0.680529 
			CHANNELS 3 Xrotation Zrotation Yrotation
			JOINT neck
			{
				OFFSET 0.000000 10.207942 -0.272212 
				CHANNELS 3 Xrotation Zrotation Yrotation
				JOINT head
				{
					OFFSET 0.000000 3.130431 0.000000 
					CHANNELS 3 Xrotation Zrotation Yrotation
					End Site
					{
						OFFSET 0.000000 3.130435 0.000000 
					}
				}
			}
			JOINT lCollar
			{
				OFFSET 3.470700 6.669187 -0.816635 
				CHANNELS 3 Yrotation Zrotation Xrotation
				JOINT lShldr
				{
					OFFSET 3.198488 0.000000 0.000000 
					CHANNELS 3 Zrotation Yrotation Xrotation
					JOINT lForeArm
					{
						OFFSET 10.139888 0.000000 0.000000 
						CHANNELS 3 Yrotation Zrotation Xrotation
						JOINT lHand
						{
							OFFSET 8.370511 0.000000 0.000000 
							CHANNELS 3 Zrotation Yrotation Xrotation
							End Site
							{
								OFFSET 4.083176 0.000000 0.000000 
							}
						}
					}
				}
			}
			JOINT rCollar
			{
				OFFSET -3.470700 6.669187 -0.816635 
				CHANNELS 3 Yrotation Zrotation Xrotation
				JOINT rShldr
				{
					OFFSET -3.198488 0.000000 0.000000 
					CHANNELS 3 Zrotation Yrotation Xrotation
					JOINT rForeArm
					{
						OFFSET -10.139888 0.000000 0.000000 
						CHANNELS 3 Yrotation Zrotation Xrotation
						JOINT rHand
						{
							OFFSET -8.370511 0.000000 0.000000 
							CHANNELS 3 Zrotation Yrotation Xrotation
							End Site
							{
								OFFSET -4.083176 0.000000 0.000000 
							}
						}
					}
				}
			}
		}
	}
	JOINT lThigh
	{
		OFFSET 5.308129 -1.633274 1.361059 
		CHANNELS 3 Xrotation Zrotation Yrotation
		JOINT lShin
		{
			OFFSET -2.041588 -20.007561 0.000000 
			CHANNELS 3 Xrotation Zrotation Yrotation
			JOINT lFoot
			{
				OFFSET 0.000000 -19.190928 -1.224953 
				CHANNELS 3 Xrotation Yrotation Zrotation
				End Site
				{
					OFFSET 0.000000 -2.449906 4.627600 
				}
			}
		}
	}
	JOINT rThigh
	{
		OFFSET -5.308129 -1.633274 1.361059 
		CHANNELS 3 Xrotation Zrotation Yrotation
		JOINT rShin
		{
			OFFSET 2.041588 -20.007561 0.000000 
			CHANNELS 3 Xrotation Zrotation Yrotation
			JOINT rFoot
			{
				OFFSET 0.000000 -19.190928 -1.224953 
				CHANNELS 3 Xrotation Yrotation Zrotation
				End Site
				{
					OFFSET 0.000000 -2.449906 4.627600 
				}
			}
		}
	}
}
MOTION
Frames: 10
Frame Time: 0.016667
6.852897 49.414814 -4.037591 -14.807510 -6.786308 -0.885442 37.021305 -0.878854 -0.625076 -12.445824 13.271282 0.322089 -1.435512 1.473446 -2.275893 7.298378 -1.278590 -1.904912 -3.389921 -7.304110 -0.009669 -71.553391 3.913265 -3.276273 -41.558037 4.321169 57.678490 -14.688813 16.047213 -4.153823 10.175510 -1.613053 -0.009608 58.462315 18.079063 16.900183 122.227493 3.331891 -40.090931 2.094387 4.050391 0.138622 -0.252911 7.803979 -0.927493 26.731102 -1.256294 -2.376498 -0.756956 10.537072 -11.821526 -10.457144 -11.354889 -6.313514 40.974510 0.576191 3.074294 17.772575 8.452312 9.681070 
6.861344 49.412861 -4.033604 -14.899221 -6.727903 -0.777612 37.040134 -0.898394 -0.566490 -12.623783 13.378663 0.352858 -1.176255 1.405243 -2.168514 7.242901 -1.454362 -1.797535 -3.458296 -7.391988 -0.009667 -71.597260 3.938447 -3.084470 -41.697731 4.322996 57.702106 -14.717073 16.016752 -4.154768 10.253601 -1.818144 -0.009605 58.940285 19.730747 17.385172 123.838608 3.465043 -42.578880 2.301133 4.459696 0.169559 -0.175310 7.749985 -0.980332 26.711674 -1.270470 -2.359137 -0.706834 10.493341 -11.819798 -10.346388 -11.428514 -6.324268 41.004147 0.576019 3.065958 17.723637 8.432299 9.701464 
6.865721 49.411842 -4.024747 -14.994022 -6.679276 -0.639544 37.057598 -0.869114 -0.449315 -12.793221 13.359027 0.421621 -0.895519 1.463786 -2.178271 7.188597 -1.591014 -1.797809 -3.555947 -7.362676 -0.009666 -71.628883 3.992382 -2.790186 -41.868645 4.313764 57.588882 -14.614146 16.137905 -4.153518 10.243810 -1.974393 -0.009604 59.501255 21.290773 17.816530 125.211830 3.624885 -44.720520 2.713236 4.653463 0.210672 -0.097316 7.715831 -1.051778 26.721445 -1.270481 -2.359640 -0.734820 10.424810 -11.823462 -10.213769 -11.473113 -6.397091 41.023003 0.569649 3.084026 17.562531 8.344343 9.747748 
6.870092 49.410835 -4.015883 -15.089638 -6.640383 -0.491781 37.085087 -0.839829 -0.341903 -12.962792 13.329603 0.492642 -0.615177 1.532086 -2.188023 7.134601 -1.737426 -1.797825 -3.654855 -7.342505 -0.019332 -71.661064 4.049761 -2.505910 -42.039516 4.305143 57.474709 -14.511157 16.259109 -4.151827 10.234018 -2.130642 -0.009604 60.073486 22.848604 18.263622 126.595108 3.736348 -46.859936 3.116622 4.846371 0.264273 -0.028596 7.679660 -1.103714 26.721445 -1.270482 -2.359640 -0.708023 10.377064 -11.854175 -10.068153 -11.532757 -6.430151 41.052937 0.576066 3.068329 17.415329 8.301323 9.812483 
6.872947 49.410538 -4.005192 -15.156886 -6.601451 -0.334321 37.062809 -0.781247 -0.166133 -13.033417 13.055898 0.622908 -0.476776 1.873444 -2.334971 7.204236 -1.981338 -1.895762 -3.791530 -7.215506 -0.019334 -71.548119 4.011281 -2.182678 -42.183983 4.301006 57.337204 -14.559654 16.360250 -4.191393 10.087547 -2.042726 -0.009609 60.513065 24.385710 18.665094 127.739868 3.861136 -48.702068 3.361572 5.001758 0.284333 0.010186 7.655885 -1.203961 26.721384 -1.280290 -2.352048 -0.702184 10.330575 -11.841628 -9.957803 -11.577467 -6.530351 41.072556 0.566252 3.065810 17.333445 8.263101 9.823220 
6.875788 49.410236 -3.994498 -15.222795 -6.562465 -0.187679 37.031246 -0.732422 0.000000 -13.103098 12.782113 0.762684 -0.340552 2.224475 -2.482010 7.264562 -2.225230 -1.983960 -3.926993 -7.089175 -0.009668 -71.445480 3.971267 -1.860958 -42.329037 4.290915 57.206802 -14.598097 16.462063 -4.228349 9.950845 -1.954813 -0.009613 60.973740 25.918909 19.077202 128.898956 3.950209 -50.549221 3.617294 5.156391 0.316305 0.058772 7.610967 -1.285877 26.711613 -1.280274 -2.351543 -0.684172 10.271337 -11.842755 -9.830061 -11.634659 -6.641279 41.101833 0.566280 3.067230 17.235872 8.188792 9.856597 
6.874480 49.407440 -3.982788 -15.283204 -6.523438 0.000000 36.999268 -0.605463 0.253892 -13.008080 12.078368 0.978755 -0.373734 3.043227 -2.806556 7.394516 -2.605520 -2.190121 -4.122241 -6.718048 -0.009673 -71.168816 3.786166 -1.453474 -42.396935 4.283348 56.939075 -14.501620 16.535421 -4.217066 9.589599 -1.456705 -0.009626 61.313564 27.485022 19.409359 129.838043 4.064847 -52.275745 3.822749 5.077276 0.329536 0.078190 7.604810 -1.355382 26.760525 -1.270529 -2.361655 -0.721786 10.153167 -11.835233 -9.722486 -11.692968 -6.800870 41.131107 0.566308 3.068650 17.182552 8.199313 9.853592 
6.873176 49.404663 -3.971075 -15.352042 -6.494110 0.176862 36.968246 -0.488261 0.517559 -12.918513 11.374542 1.197005 -0.425855 3.871216 -3.121965 7.517440 -2.985674 -2.395941 -4.307724 -6.346923 -0.009678 -70.892792 3.603290 -1.036061 -42.453693 4.270689 56.684124 -14.405824 16.618254 -4.210670 9.218589 -0.958596 -0.009638 61.662045 29.051830 19.745070 130.783447 4.140786 -53.999653 4.028953 4.987706 0.351229 0.097640 7.599140 -1.435994 26.819689 -1.274417 -2.346079 -0.773394 10.063060 -11.824030 -9.596520 -11.762777 -6.980946 41.170406 0.576169 3.064334 17.117466 8.204058 9.871583 
6.873969 49.405849 -3.958403 -15.380350 -6.435432 0.342927 36.889111 -0.429653 0.722636 -12.755574 10.846484 1.392375 -0.509632 4.474569 -3.398902 7.609135 -3.287681 -2.582840 -4.424874 -6.132059 -0.009681 -70.619843 3.362718 -0.732474 -42.455921 4.272646 56.636982 -14.341391 16.482338 -4.147283 8.935451 -0.567923 -0.009647 61.842522 30.396893 19.910952 131.577530 4.236131 -55.538399 4.086046 4.841929 0.336203 0.127419 7.559268 -1.437475 26.780828 -1.260756 -2.350824 -0.767814 9.959911 -11.833223 -9.508767 -11.850542 -7.159312 41.199776 0.566363 3.062278 17.048063 8.217218 9.881338 
6.874748 49.407043 -3.945747 -15.418168 -6.386467 0.510092 36.810398 -0.371045 0.927715 -12.596591 10.308624 1.589699 -0.599266 5.077474 -3.676241 7.702801 -3.589565 -2.769251 -4.552796 -5.906653 -0.019366 -70.356949 3.125175 -0.419278 -42.462364 4.268263 56.584431 -14.280662 16.353373 -4.098315 8.662079 -0.177252 -0.009654 62.015324 31.748243 20.076542 132.377426 4.289875 -57.078110 4.143933 4.685741 0.329877 0.156477 7.520412 -1.459821 26.762058 -1.250938 -2.337982 -0.792430 9.878151 -11.831219 -9.420037 -11.946802 -7.366987 41.228336 0.566406 3.083073 16.994396 8.189490 9.889834 
